<svg width="80" height="74" viewBox="0 0 80 74" fill="none" xmlns="http://www.w3.org/2000/svg">
<path d="M30.0468 33.2247C29.8686 34.2567 29.1875 35.0887 28.3073 35.5941C26.8403 36.4366 25.0274 36.1733 23.8643 34.9939C22.7011 33.8144 22.4601 31.961 23.3089 30.5183C24.1577 29.0756 25.8553 28.3806 27.4795 28.8439C28.1397 29.0335 28.8103 29.0756 29.4914 28.9913C30.5707 28.865 31.4719 28.2647 32.0377 27.338C32.3207 26.8746 32.5303 26.3902 32.6665 25.8637C33.0856 24.2736 34.4584 23.1468 36.0512 23.0625C37.6439 22.9783 39.1633 23.9892 39.6978 25.4951C40.2741 27.1063 39.6978 28.865 38.3146 29.8127C37.4448 30.413 36.4074 30.592 35.391 30.3182C33.903 29.918 32.0797 30.0128 30.9794 31.1291C30.4136 31.7083 30.183 32.4244 30.0468 33.2352V33.2247Z" fill="#64499D"/>
<path d="M64.4413 40.7128C65.4263 40.4285 66.4532 40.6496 67.2915 41.2077C68.6957 42.1344 69.3035 43.872 68.7586 45.4938C68.2451 47.0207 66.7676 48.0633 65.1224 47.9896C63.4772 47.9158 62.0941 46.7996 61.7273 45.1778C61.5701 44.4617 61.371 43.8194 60.9938 43.1875C60.4384 42.2608 59.5372 41.65 58.4579 41.5342C57.8816 41.471 57.3157 41.4815 56.7394 41.5974C54.8217 41.9975 52.9565 40.8918 52.4116 39.0384C51.8667 37.185 52.8308 35.2157 54.6227 34.5418C56.4145 33.8678 58.4789 34.6681 59.2753 36.4689L59.5896 37.5957C60.0402 39.2174 61.0776 40.776 62.8171 40.9445C63.383 40.9971 63.8754 40.8918 64.4413 40.7233V40.7128Z" fill="#64499D"/>
<path d="M35.1424 46.1787C36.0541 45.8206 37.0391 45.9365 37.8878 46.3577C39.4177 47.1159 40.2246 48.7903 39.8683 50.4542C39.512 52.118 38.1393 53.2659 36.4941 53.3607C34.849 53.4554 33.2876 52.4234 32.7847 50.7912C32.5751 50.1172 32.3236 49.5064 31.9149 48.9272C30.8356 47.4108 29.1695 47.2212 27.4405 47.6951C25.7115 48.169 23.951 47.3792 23.1651 45.8206C22.3792 44.2621 22.7984 42.3244 24.1711 41.2397C25.5438 40.1551 27.5557 40.1972 28.897 41.3872C29.4 41.8295 29.7353 42.3876 29.9239 43.0405C30.364 44.5885 31.4329 46.1892 33.0781 46.4735C33.8011 46.5999 34.4508 46.4419 35.1424 46.1681V46.1787Z" fill="#64499D"/>
<path d="M46.3519 36.2783C48.3832 36.2783 50.0299 34.6235 50.0299 32.582C50.0299 30.5406 48.3832 28.8857 46.3519 28.8857C44.3205 28.8857 42.6738 30.5406 42.6738 32.582C42.6738 34.6235 44.3205 36.2783 46.3519 36.2783Z" fill="#64499D"/>
<path d="M46.3519 47.8418C48.3832 47.8418 50.0299 46.1869 50.0299 44.1455C50.0299 42.1041 48.3832 40.4492 46.3519 40.4492C44.3205 40.4492 42.6738 42.1041 42.6738 44.1455C42.6738 46.1869 44.3205 47.8418 46.3519 47.8418Z" fill="#64499D"/>
<path d="M20.4497 16.1442C20.282 17.0919 19.6743 17.8712 18.8989 18.3767C17.4633 19.3139 15.5875 19.1349 14.351 17.9555C13.1145 16.776 12.8526 14.9331 13.7014 13.4378C14.5501 11.9424 16.2477 11.2684 17.8929 11.7318C18.5845 11.9319 19.2866 11.9635 19.9991 11.8687C20.9736 11.7318 21.791 11.2052 22.3359 10.3838C22.6607 9.88889 22.9122 9.35182 23.0589 8.77263C23.5515 6.87709 25.3433 5.66605 27.2505 5.99251C29.1576 6.31896 30.478 8.04601 30.2998 9.97314C30.1217 11.9003 28.4974 13.3956 26.5379 13.3219L25.4167 13.1113C23.8239 12.8164 22.032 13.006 21.0679 14.3855C20.7012 14.9121 20.5545 15.4913 20.4288 16.1442H20.4497Z" fill="#64499D"/>
<path d="M16.8675 30.4981C18.8989 30.4981 20.5456 28.8432 20.5456 26.8018C20.5456 24.7604 18.8989 23.1055 16.8675 23.1055C14.8362 23.1055 13.1895 24.7604 13.1895 26.8018C13.1895 28.8432 14.8362 30.4981 16.8675 30.4981Z" fill="#64499D"/>
<path d="M42.8737 23.126C42.6956 22.768 42.6327 22.4205 42.5279 22.0624C42.0459 20.388 40.8198 18.7663 38.9651 18.7558C38.4307 18.7558 37.9696 18.9137 37.4666 19.0612C36.534 19.356 35.549 19.1875 34.7002 18.6926C33.2332 17.8396 32.5521 16.1231 33.0026 14.4803C33.4532 12.8375 34.8783 11.7949 36.534 11.7949C38.1897 11.7949 39.6357 12.8691 40.0654 14.5013C40.2854 15.3333 40.5788 16.102 41.1237 16.7654C42.1716 18.0291 43.7015 18.2082 45.2524 17.8501C47.1386 17.4078 49.0247 18.4504 49.622 20.2722C50.2193 22.094 49.3391 24.0843 47.5892 24.8425C45.8392 25.6008 43.7539 24.8952 42.8632 23.1366L42.8737 23.126Z" fill="#64499D"/>
<path d="M45.6312 13.3848C47.6625 13.3848 49.3092 11.7299 49.3092 9.68849C49.3092 7.64708 47.6625 5.99219 45.6312 5.99219C43.5998 5.99219 41.9531 7.64708 41.9531 9.68849C41.9531 11.7299 43.5998 13.3848 45.6312 13.3848Z" fill="#64499D"/>
<path d="M30.5815 21.0085C30.5815 23.3042 28.7268 25.1576 26.4529 25.1576C24.179 25.1576 22.3242 23.2937 22.3242 21.0085C22.3242 18.7233 24.179 16.8594 26.4529 16.8594C28.7268 16.8594 30.5815 18.7233 30.5815 21.0085ZM29.6489 21.0085C29.6489 19.2288 28.2133 17.7966 26.4529 17.7966C24.6924 17.7966 23.2568 19.2393 23.2568 21.0085C23.2568 22.7777 24.6924 24.2204 26.4529 24.2204C28.2133 24.2204 29.6489 22.7777 29.6489 21.0085Z" fill="#97CCEF"/>
<path d="M60.7084 26.1794C60.9914 28.1381 59.8806 29.981 58.1202 30.6655C56.3597 31.35 54.2535 30.7076 53.1951 29.107C52.1367 27.5063 52.3149 25.2948 53.6772 23.8521C54.0544 23.4519 54.3059 22.957 54.505 22.462C54.8403 21.6196 54.7774 20.7034 54.3268 19.9241C54.0544 19.4397 53.7191 19.0185 53.2999 18.6499C51.4137 16.986 51.3613 14.048 53.237 12.363C54.7041 11.0467 56.9151 10.973 58.4764 12.1629C60.3312 13.5741 60.7084 16.3226 59.1366 18.1234C58.2145 19.1764 57.4705 20.7245 57.963 22.0724C58.204 22.7358 58.686 23.1781 59.2309 23.5783C60.0587 24.1891 60.5617 25.1263 60.7084 26.1794ZM58.7698 24.3892C58.1097 23.9679 57.6172 23.4519 57.2504 22.7885C56.3911 21.0614 57.0932 19.1027 58.2773 17.6811L58.8013 16.965C59.5977 15.4696 59.0528 13.6162 57.6591 12.7421C56.2654 11.8681 54.3583 12.2261 53.3837 13.5846C52.4092 14.9431 52.6293 16.8175 53.8972 17.9443C54.3478 18.3445 54.7041 18.7973 55.0184 19.3028C55.6996 20.3664 55.8043 21.6301 55.3642 22.8096C55.0813 23.5678 54.6307 24.1786 54.1277 24.7893C52.996 26.1373 53.237 28.1381 54.5364 29.2544C55.8358 30.3707 57.8372 30.2548 58.9899 28.949C60.1426 27.6432 60.0692 25.6002 58.7593 24.4102L58.7698 24.3892Z" fill="#97CCEF"/>
<path d="M79.1832 68.4601H72.9693V72.4618H80.0006V73.6518H71.6699V62.1943H79.9167V63.3843H72.9693V67.2807H79.1832V68.4601Z" fill="#64499D"/>
<path d="M65.7591 62.2049H67.1633L62.2696 73.7255H61.1065L56.2129 62.2049L57.659 62.1943L61.7038 72.0301L65.7591 62.2049Z" fill="#64499D"/>
<path d="M42.0057 73.6413L40.6854 73.6518L40.6959 63.4054H36.8711V62.1943H45.82L45.8305 63.4054H42.0057V73.6413Z" fill="#64499D"/>
<path d="M51.5943 62.1943H50.2949V73.6623H51.5943V62.1943Z" fill="#64499D"/>
<path d="M30.7715 62.1949V73.6523H32.0709V62.1949H30.7715Z" fill="#64499D"/>
<path d="M11.7733 73.0206L10.9035 73.9999L9.39457 72.6309C8.19999 73.5682 6.73296 73.9578 5.22401 73.8314C3.15969 73.6524 1.39924 72.4203 0.550455 70.5248C-0.235456 68.7661 -0.183064 66.7126 0.728592 65.0172C1.64025 63.3217 3.22255 62.2581 5.08778 62.0475C7.62365 61.7526 9.96043 62.9321 11.0502 65.2594C12.0352 67.355 11.7837 69.9561 10.2748 71.7779L11.7733 73.0311V73.0206ZM6.34524 69.9772L7.20451 68.9978L9.31074 70.9039C10.4005 69.4401 10.5787 67.5551 9.88708 65.9228C9.1326 64.1431 7.39311 63.069 5.47549 63.2164C3.88271 63.3322 2.50999 64.28 1.82887 65.7438C1.14775 67.2076 1.20014 68.9346 1.97557 70.3563C3.25399 72.7046 6.28236 73.3786 8.45147 71.7885L6.34524 69.9772Z" fill="#64499D"/>
<path d="M26.0357 73.6312L24.4639 73.6628L21.1631 69.2188H17.9146V73.6628H16.6152V62.2158H21.8127C22.5253 62.2158 23.1854 62.3948 23.8037 62.6897C24.9983 63.2584 25.7108 64.4273 25.6375 65.7647C25.6375 66.8494 25.1031 67.8077 24.1914 68.3763C23.6989 68.6923 23.1855 68.8713 22.5672 68.9976L26.0357 73.6417V73.6312ZM24.3381 65.5751C24.3067 64.7959 23.919 64.143 23.2483 63.7849C22.7663 63.5322 22.2528 63.4269 21.7079 63.3953H17.9146V68.0288H21.6556C23.1121 67.9551 24.3905 67.1337 24.3276 65.5751H24.3381Z" fill="#64499D"/>
<path d="M20.9956 38.364C20.9956 40.6597 19.1408 42.5131 16.8669 42.5131C14.593 42.5131 12.7383 40.6491 12.7383 38.364C12.7383 36.0788 14.593 34.2148 16.8669 34.2148C19.1408 34.2148 20.9956 36.0788 20.9956 38.364ZM20.063 38.364C20.063 36.5843 18.6274 35.1521 16.8669 35.1521C15.1065 35.1521 13.6709 36.5948 13.6709 38.364C13.6709 40.1331 15.1065 41.5759 16.8669 41.5759C18.6274 41.5759 20.063 40.1331 20.063 38.364Z" fill="#97CCEF"/>
<path d="M40.6538 4.14912C40.6538 6.44483 38.799 8.29825 36.5251 8.29825C34.2512 8.29825 32.3965 6.4343 32.3965 4.14912C32.3965 1.86395 34.2512 0 36.5251 0C38.799 0 40.6538 1.86395 40.6538 4.14912ZM39.7212 4.14912C39.7212 2.36942 38.2855 0.937238 36.5251 0.937238C34.7647 0.937238 33.3291 2.37995 33.3291 4.14912C33.3291 5.91829 34.7647 7.36101 36.5251 7.36101C38.2855 7.36101 39.7212 5.91829 39.7212 4.14912Z" fill="#97CCEF"/>
<path d="M40.4116 38.1208C40.4116 40.4165 38.5569 42.2699 36.283 42.2699C34.009 42.2699 32.1543 40.406 32.1543 38.1208C32.1543 35.8356 34.009 33.9717 36.283 33.9717C38.5569 33.9717 40.4116 35.8356 40.4116 38.1208ZM39.479 38.1208C39.479 36.3411 38.0434 34.9089 36.283 34.9089C34.5225 34.9089 33.0869 36.3516 33.0869 38.1208C33.0869 39.89 34.5225 41.3327 36.283 41.3327C38.0434 41.3327 39.479 39.89 39.479 38.1208Z" fill="#97CCEF"/>
</svg>
