<svg width="150" height="36" viewBox="0 0 150 36" fill="none" xmlns="http://www.w3.org/2000/svg">
<path d="M115.256 33.8289C117.491 33.8289 119.303 32.0383 119.303 29.8295C119.303 27.6207 117.491 25.8301 115.256 25.8301C113.021 25.8301 111.209 27.6207 111.209 29.8295C111.209 32.0383 113.021 33.8289 115.256 33.8289Z" fill="white"/>
<path d="M74.832 33.5131L70.5768 27.4453C70.021 26.6557 69.031 26.3553 68.1365 26.6557C67.2421 26.9561 66.6602 27.7457 66.6602 28.6898V33.5217H60.7637V3.19141H66.6515V19.9786L74.1547 12.0055L81.8749 12.0227L73.1733 21.06L82.0659 33.5217H74.832V33.5131Z" fill="white"/>
<path d="M54.0843 32.9789C52.8772 33.4938 51.6788 33.7427 50.3675 33.7427H41.9004V29.4858H50.2719C51.7483 29.4086 52.9033 28.5246 52.7209 27.1686C52.5559 25.9756 51.2793 25.6237 50.1851 25.3663L47.1457 24.6625C44.8704 24.1304 42.7688 22.6199 42.1349 20.3284C41.5009 18.0369 42.2999 15.4879 44.193 13.8658C45.6606 12.6128 47.5017 11.9949 49.4817 11.9434H58.1224V16.1831H49.7856C48.9085 16.1831 48.0922 16.4491 47.5277 17.0928C46.9111 17.7966 46.9372 18.8179 47.6233 19.4358C47.988 19.7619 48.4309 19.925 48.9172 20.0366L52.6167 20.8347C55.0656 21.3669 57.4277 23.1091 57.9748 25.6151C58.6522 28.6962 57.0369 31.7172 54.0843 32.9789Z" fill="white"/>
<path d="M107.543 33.3141C103.548 34.5157 98.8499 33.7089 97.5994 29.4091C97.3823 28.6968 97.3302 28.0188 97.2955 27.2549V17.162H93.3789V11.9868L95.3502 11.901C96.427 11.7036 97.2781 10.9998 97.6168 9.97853C97.7818 9.54083 97.8252 9.09455 97.8425 8.61393V5.55859H103.157V11.9782L107.551 11.9868V17.1534H103.157V26.2851C103.192 26.9116 103.296 27.4695 103.67 27.9415C104 28.2934 104.434 28.4822 104.92 28.5766C105.789 28.671 106.631 28.6281 107.551 28.4651V33.3141H107.543Z" fill="white"/>
<path d="M90.5135 11.9688H84.5996V33.5106H90.5135V11.9688Z" fill="white"/>
<path d="M87.5352 8.52019C89.5447 8.52019 91.1738 6.91019 91.1738 4.92416C91.1738 2.93813 89.5447 1.32812 87.5352 1.32812C85.5256 1.32812 83.8965 2.93813 83.8965 4.92416C83.8965 6.91019 85.5256 8.52019 87.5352 8.52019Z" fill="white"/>
<path d="M127.058 33.8121C123.889 32.9882 121.761 30.3191 122.117 27.0492C122.291 25.3928 123.098 23.9681 124.462 22.9725C125.478 22.2344 126.624 21.7453 127.901 21.5479L134.014 20.6124C134.518 20.5351 135.004 20.1661 135.126 19.7026C135.412 18.6556 134.883 17.5914 133.953 17.0507C133.363 16.7074 132.703 16.5271 132.017 16.5271H129.664L128.048 16.5701H123.906V11.9355H132.026C135.1 12.0128 138.27 12.9912 139.789 15.729C140.432 16.879 140.797 18.1235 140.797 19.4709L140.823 33.5032H135.56V31.0743C133.693 33.8293 130.15 34.6017 127.058 33.8035V33.8121ZM129.742 29.787C130.758 30.0015 131.765 29.847 132.694 29.5037C134.909 28.5597 135.308 26.4313 135.178 24.1226L130.324 24.8521C128.986 25.0581 127.953 25.8305 127.814 27.1951C127.692 28.4224 128.456 29.5123 129.733 29.787H129.742Z" fill="white"/>
<path d="M143.561 11.9936L143.559 33.5098L149.473 33.5104L149.475 11.9943L143.561 11.9936Z" fill="white"/>
<path d="M150.002 5.91089C149.472 7.68745 147.752 8.72591 145.972 8.46844C144.192 8.21097 142.802 6.66614 142.863 4.83808C142.924 3.01003 144.279 1.59393 146.007 1.35363C147.822 1.10474 149.498 2.19469 150.002 3.94551V5.91089Z" fill="white"/>
<path d="M17.333 0.00534628C25.0702 -0.183338 30.4456 4.66514 32.582 7.77195C34.9995 11.296 35.4944 15.1513 35.5 15.1958C35.5868 15.8822 35.6134 16.4575 35.6221 16.8608C35.6308 23.2375 35.6388 29.6149 35.6475 35.9917V35.9995C35.109 35.3987 34.1272 34.4463 32.6338 33.7426C30.6114 32.7992 28.8233 32.8583 28.4229 32.8755C26.5992 32.9699 25.3135 33.6485 24.6709 33.9575C19.5733 36.3777 13.0946 34.7556 12.6777 34.644C8.02364 33.4254 5.14053 30.302 4.29785 29.3061C-0.174434 24.0709 -1.79868 15.3679 2.56055 8.36472C7.51053 0.408823 16.9249 0.0139287 17.333 0.00534628ZM23.7705 5.78953C23.4145 5.36042 22.8407 5.28305 22.4238 5.66062C21.5294 6.47592 20.9391 8.72471 20.583 10.0893L20.2354 11.4194C19.914 12.6381 19.6013 13.8231 19.0977 14.9731C18.8719 15.4794 18.5764 15.9259 18.1162 16.2348C17.7691 16.4661 17.4221 16.3632 17.2051 16.0376L16.1719 14.4751C15.9982 14.209 15.711 13.9777 15.4766 13.9262C14.4171 13.6946 13.9223 14.8873 13.3926 15.5825L13.0361 16.0454C12.7583 16.4143 12.3244 16.4408 11.9424 16.2007C10.6224 15.3682 9.52782 12.3722 8.11231 13.6938C6.69679 15.0155 5.9327 17.4702 3.91797 18.0366C4.49981 18.1653 4.90825 18.4233 5.31641 18.8266C6.57549 20.0625 7.30533 21.7356 8.24317 22.4565C9.27653 23.2545 10.0841 21.8126 10.8223 20.9887L11.3779 20.3716C11.8035 19.8909 12.5153 19.479 12.8105 19.8052L13.375 20.4311C13.7311 20.8259 14.4695 22.5427 15.5029 22.105C15.937 21.9162 16.2238 21.5216 16.4756 21.144L17.2139 20.0112C17.3354 19.8224 17.5265 19.7022 17.7002 19.685C18.3947 19.6081 18.8896 20.5256 19.2022 21.2807C20.1835 23.6581 20.5658 26.508 21.5645 28.9712C21.9118 29.8206 22.424 30.7381 23.2227 30.601C23.9694 30.4723 24.5433 28.9368 24.8125 28.0356L25.8281 24.5854C25.8802 24.431 25.9321 24.3277 25.9668 24.1733C26.2794 22.8089 27.2435 20.6207 28.1553 19.5649C28.1986 19.5135 28.2078 19.4362 28.3115 19.4018C28.3289 19.3932 28.3644 19.3672 28.373 19.3501C28.4338 19.2557 28.5031 19.187 28.5898 19.1098L28.668 19.0327L28.6592 19.0493C29.2756 18.483 30.0052 18.1831 30.8213 18.02C27.7213 17.5564 26.4973 13.831 25.707 11.1362L24.7168 7.73777C24.5084 7.02551 24.2307 6.33876 23.7705 5.78953Z" fill="url(#paint0_linear_1348_613)"/>
<path d="M17.333 0.00534628C25.0702 -0.183338 30.4456 4.66514 32.582 7.77195C34.9995 11.296 35.4944 15.1513 35.5 15.1958C35.5868 15.8822 35.6134 16.4575 35.6221 16.8608C35.6308 23.2375 35.6388 29.6149 35.6475 35.9917V35.9995C35.109 35.3987 34.1272 34.4463 32.6338 33.7426C30.6114 32.7992 28.8233 32.8583 28.4229 32.8755C26.5992 32.9699 25.3135 33.6485 24.6709 33.9575C19.5733 36.3777 13.0946 34.7556 12.6777 34.644C8.02364 33.4254 5.14053 30.302 4.29785 29.3061C-0.174434 24.0709 -1.79868 15.3679 2.56055 8.36472C7.51053 0.408823 16.9249 0.0139287 17.333 0.00534628ZM23.7705 5.78953C23.4145 5.36042 22.8407 5.28305 22.4238 5.66062C21.5294 6.47592 20.9391 8.72471 20.583 10.0893L20.2354 11.4194C19.914 12.6381 19.6013 13.8231 19.0977 14.9731C18.8719 15.4794 18.5764 15.9259 18.1162 16.2348C17.7691 16.4661 17.4221 16.3632 17.2051 16.0376L16.1719 14.4751C15.9982 14.209 15.711 13.9777 15.4766 13.9262C14.4171 13.6946 13.9223 14.8873 13.3926 15.5825L13.0361 16.0454C12.7583 16.4143 12.3244 16.4408 11.9424 16.2007C10.6224 15.3682 9.52782 12.3722 8.11231 13.6938C6.69679 15.0155 5.9327 17.4702 3.91797 18.0366C4.49981 18.1653 4.90825 18.4233 5.31641 18.8266C6.57549 20.0625 7.30533 21.7356 8.24317 22.4565C9.27653 23.2545 10.0841 21.8126 10.8223 20.9887L11.3779 20.3716C11.8035 19.8909 12.5153 19.479 12.8105 19.8052L13.375 20.4311C13.7311 20.8259 14.4695 22.5427 15.5029 22.105C15.937 21.9162 16.2238 21.5216 16.4756 21.144L17.2139 20.0112C17.3354 19.8224 17.5265 19.7022 17.7002 19.685C18.3947 19.6081 18.8896 20.5256 19.2022 21.2807C20.1835 23.6581 20.5658 26.508 21.5645 28.9712C21.9118 29.8206 22.424 30.7381 23.2227 30.601C23.9694 30.4723 24.5433 28.9368 24.8125 28.0356L25.8281 24.5854C25.8802 24.431 25.9321 24.3277 25.9668 24.1733C26.2794 22.8089 27.2435 20.6207 28.1553 19.5649C28.1986 19.5135 28.2078 19.4362 28.3115 19.4018C28.3289 19.3932 28.3644 19.3672 28.373 19.3501C28.4338 19.2557 28.5031 19.187 28.5898 19.1098L28.668 19.0327L28.6592 19.0493C29.2756 18.483 30.0052 18.1831 30.8213 18.02C27.7213 17.5564 26.4973 13.831 25.707 11.1362L24.7168 7.73777C24.5084 7.02551 24.2307 6.33876 23.7705 5.78953Z" fill="white"/>
<defs>
<linearGradient id="paint0_linear_1348_613" x1="7.95367" y1="32.5404" x2="33.2351" y2="7.68832" gradientUnits="userSpaceOnUse">
<stop stop-color="#1E63A4"/>
<stop offset="0.51" stop-color="#39C0EC"/>
<stop offset="0.92" stop-color="#7AC580"/>
</linearGradient>
</defs>
</svg>
